# xmcd
#
# Track frame offsets:
#	150
#	9761
#	21750
#	33204
#	43442
#	55848
#	69676
#	79533
#	92350
#	105694
#	116025
#	132979
#	142461
#	154698
#	165323
#	175413
#	184685
#	195834
#	212598
#	226806
#	237904
#	248535
#
# Disc length: 3575 seconds
#
# Revision: 0
# Processed by: cddbd v1.5.2PL0 Copyright (c) Steve Scherf et al.
# Submitted via: EasyCDDAExtractor 16.0.6.1
#
DISCID=190df516
DTITLE=Various Artist - Country Sunset [Disc 03]
DYEAR=1900
DGENRE=Country
TTITLE0=Hank Locklin - Geisha Girl
TTITLE1=Webb Pierce - Memory Number 1
TTITLE2=Carl Smith - Loose Talk
TTITLE3=The Kendalls - I Had a Lovely Time
TTITLE4=Jeannie C. Riley - Good Enough to Be Your Wife
TTITLE5=Eddy Raven - Operator, Operator
TTITLE6=Billie Jo Spears - Souvenirs and Californian Memories
TTITLE7=Skeeter Davis - Love Me Tender
TTITLE8=Lefty Frizell - If You've Got the Money, I've Got the Time
TTITLE9=The Everly Brothers - This Little Girl of Mine
TTITLE10=Bill Anderson - The Corner of My Life
TTITLE11=Dave Dudley - Truck Driving Son of a Gun
TTITLE12=Jeanne Pruett - Satin Sheets
TTITLE13=Carl Belew - Hello Out There
TTITLE14=David Houston - With One Exception
TTITLE15=Jimmy Dean - The First Thing Every Morning
TTITLE16=Johnny Rodriguez - Pass Me by
TTITLE17=Lee Greenwood - Ring on Her Finger, Time on Her Hands
TTITLE18=Roy Clark - Tips of My Fingers
TTITLE19=Waylon Jennings - Dream Baby
TTITLE20=Ernest Ashworth - You Can't Pick a Rose in December
TTITLE21=Glen Campbell - Medley
EXTD=
EXTT0=
EXTT1=
EXTT2=
EXTT3=
EXTT4=
EXTT5=
EXTT6=
EXTT7=
EXTT8=
EXTT9=
EXTT10=
EXTT11=
EXTT12=
EXTT13=
EXTT14=
EXTT15=
EXTT16=
EXTT17=
EXTT18=
EXTT19=
EXTT20=
EXTT21=
PLAYORDER=
